<svg width="58" height="58" viewBox="0 0 58 58" fill="none" xmlns="http://www.w3.org/2000/svg">
<path d="M50.95 12.187L50.179 11.416L40.084 1.321L39.313 0.55C38.964 0.201 38.48 0 37.985 0H8.963C7.777 0 6.5 0.916 6.5 2.926V39V55.537V56C6.5 56.837 7.342 57.653 8.338 57.91C8.388 57.923 8.436 57.942 8.488 57.952C8.644 57.983 8.803 58 8.963 58H49.037C49.197 58 49.356 57.983 49.512 57.952C49.564 57.942 49.612 57.923 49.662 57.91C50.658 57.653 51.5 56.837 51.5 56V55.537V39V13.978C51.5 13.211 51.408 12.645 50.95 12.187ZM47.935 12H39.5V3.565L47.935 12ZM8.963 56C8.892 56 8.828 55.974 8.765 55.951C8.609 55.877 8.5 55.721 8.5 55.537V41H49.5V55.537C49.5 55.721 49.391 55.876 49.235 55.951C49.172 55.974 49.108 56 49.037 56H8.963ZM8.5 39V2.926C8.5 2.709 8.533 2 8.963 2H37.558C37.525 2.126 37.5 2.256 37.5 2.391V14H49.109C49.244 14 49.373 13.975 49.499 13.942C49.499 13.957 49.5 13.963 49.5 13.978V39H8.5Z" fill="#B9C2C9"/>
<path d="M23.2352 45.4C22.8112 44.954 22.2782 44.595 21.6352 44.327C20.9922 44.059 20.2472 43.924 19.4002 43.924H16.3652V54H20.1792C20.3062 54 20.5022 53.984 20.7672 53.952C21.0312 53.92 21.3232 53.848 21.6422 53.733C21.9612 53.619 22.2912 53.448 22.6332 53.22C22.9752 52.992 23.2822 52.68 23.5562 52.283C23.8302 51.886 24.0552 51.394 24.2332 50.806C24.4112 50.218 24.5002 49.509 24.5002 48.68C24.5002 48.078 24.3952 47.492 24.1862 46.923C23.9762 46.355 23.6592 45.847 23.2352 45.4ZM22.0392 51.73C21.5472 52.441 20.7452 52.796 19.6332 52.796H18.0062V45.167H18.9632C19.7472 45.167 20.3852 45.27 20.8772 45.475C21.3692 45.68 21.7592 45.949 22.0462 46.282C22.3332 46.615 22.5262 46.986 22.6272 47.396C22.7272 47.806 22.7772 48.221 22.7772 48.64C22.7772 49.989 22.5312 51.02 22.0392 51.73Z" fill="#B9C2C9"/>
<path d="M33.2651 45.072C32.8871 44.643 32.4451 44.318 31.9391 44.094C31.4331 43.87 30.8791 43.759 30.2781 43.759C29.6771 43.759 29.1231 43.87 28.6171 44.094C28.1111 44.318 27.6691 44.643 27.2911 45.072C26.9131 45.501 26.6161 46.036 26.4021 46.678C26.1881 47.321 26.0811 48.066 26.0811 48.913C26.0811 49.76 26.1881 50.508 26.4021 51.155C26.6161 51.802 26.9121 52.34 27.2911 52.768C27.6691 53.197 28.1111 53.52 28.6171 53.739C29.1231 53.958 29.6771 54.067 30.2781 54.067C30.8791 54.067 31.4331 53.958 31.9391 53.739C32.4451 53.52 32.8871 53.197 33.2651 52.768C33.6431 52.339 33.9391 51.802 34.1541 51.155C34.3681 50.508 34.4751 49.76 34.4751 48.913C34.4751 48.066 34.3681 47.32 34.1541 46.678C33.9391 46.036 33.6431 45.501 33.2651 45.072ZM32.5881 50.698C32.4511 51.185 32.2621 51.58 32.0211 51.881C31.7791 52.182 31.5061 52.399 31.2011 52.53C30.8951 52.662 30.5741 52.728 30.2371 52.728C29.9091 52.728 29.5961 52.658 29.3001 52.516C29.0041 52.374 28.7391 52.152 28.5071 51.846C28.2751 51.54 28.0921 51.147 27.9601 50.663C27.8281 50.18 27.7571 49.597 27.7481 48.913C27.7571 48.211 27.8301 47.619 27.9671 47.136C28.1041 46.653 28.2931 46.259 28.5341 45.953C28.7751 45.647 29.0491 45.432 29.3541 45.304C29.6591 45.176 29.9801 45.113 30.3181 45.113C30.6461 45.113 30.9581 45.181 31.2551 45.318C31.5511 45.455 31.8161 45.678 32.0481 45.988C32.2801 46.298 32.4631 46.692 32.5951 47.171C32.7271 47.65 32.7981 48.231 32.8071 48.914C32.7971 49.616 32.7251 50.211 32.5881 50.698Z" fill="#B9C2C9"/>
<path d="M39.0624 45.954C39.3034 45.648 39.5774 45.433 39.8824 45.305C40.1874 45.177 40.5084 45.114 40.8464 45.114C41.1474 45.114 41.4364 45.174 41.7144 45.292C41.9924 45.41 42.2454 45.602 42.4734 45.866L43.6084 44.854C43.2344 44.49 42.8104 44.216 42.3374 44.034C41.8634 43.851 41.3534 43.761 40.8064 43.761C40.2134 43.761 39.6624 43.872 39.1524 44.096C38.6414 44.32 38.1974 44.645 37.8194 45.074C37.4414 45.503 37.1444 46.038 36.9304 46.68C36.7164 47.323 36.6094 48.068 36.6094 48.915C36.6094 49.762 36.7164 50.51 36.9304 51.157C37.1444 51.804 37.4404 52.342 37.8194 52.77C38.1974 53.199 38.6394 53.522 39.1454 53.741C39.6514 53.96 40.2054 54.069 40.8064 54.069C41.3534 54.069 41.8634 53.978 42.3374 53.796C42.8114 53.613 43.2344 53.34 43.6084 52.976L42.4734 51.978C42.2364 52.243 41.9744 52.434 41.6874 52.552C41.4004 52.67 41.0924 52.73 40.7644 52.73C40.4364 52.73 40.1234 52.66 39.8274 52.518C39.5314 52.376 39.2664 52.154 39.0344 51.848C38.8024 51.542 38.6194 51.149 38.4874 50.665C38.3554 50.182 38.2844 49.599 38.2754 48.915C38.2844 48.213 38.3574 47.621 38.4944 47.138C38.6314 46.655 38.8204 46.26 39.0624 45.954Z" fill="#B9C2C9"/>
<path d="M13.5 14H19.5C20.052 14 20.5 13.552 20.5 13C20.5 12.448 20.052 12 19.5 12H13.5C12.948 12 12.5 12.448 12.5 13C12.5 13.552 12.948 14 13.5 14Z" fill="#B9C2C9"/>
<path d="M13.5 19H22.5C23.052 19 23.5 18.552 23.5 18C23.5 17.448 23.052 17 22.5 17H13.5C12.948 17 12.5 17.448 12.5 18C12.5 18.552 12.948 19 13.5 19Z" fill="#B9C2C9"/>
<path d="M26.5 19C26.76 19 27.02 18.89 27.21 18.71C27.39 18.52 27.5 18.26 27.5 18C27.5 17.74 27.39 17.48 27.21 17.29C26.84 16.92 26.16 16.92 25.79 17.29C25.61 17.48 25.5 17.74 25.5 18C25.5 18.26 25.61 18.52 25.79 18.71C25.98 18.89 26.24 19 26.5 19Z" fill="#B9C2C9"/>
<path d="M30.5 19H38.5C39.052 19 39.5 18.552 39.5 18C39.5 17.448 39.052 17 38.5 17H30.5C29.948 17 29.5 17.448 29.5 18C29.5 18.552 29.948 19 30.5 19Z" fill="#B9C2C9"/>
<path d="M12.79 32.29C12.61 32.48 12.5 32.74 12.5 33C12.5 33.26 12.61 33.52 12.79 33.71C12.98 33.89 13.24 34 13.5 34C13.76 34 14.02 33.89 14.21 33.71C14.39 33.52 14.5 33.26 14.5 33C14.5 32.73 14.39 32.48 14.21 32.29C13.84 31.92 13.16 31.92 12.79 32.29Z" fill="#B9C2C9"/>
<path d="M25.5 32H17.5C16.948 32 16.5 32.448 16.5 33C16.5 33.552 16.948 34 17.5 34H25.5C26.052 34 26.5 33.552 26.5 33C26.5 32.448 26.052 32 25.5 32Z" fill="#B9C2C9"/>
<path d="M44.5 17H42.5C41.948 17 41.5 17.448 41.5 18C41.5 18.552 41.948 19 42.5 19H44.5C45.052 19 45.5 18.552 45.5 18C45.5 17.448 45.052 17 44.5 17Z" fill="#B9C2C9"/>
<path d="M13.5 24H35.5C36.052 24 36.5 23.552 36.5 23C36.5 22.448 36.052 22 35.5 22H13.5C12.948 22 12.5 22.448 12.5 23C12.5 23.552 12.948 24 13.5 24Z" fill="#B9C2C9"/>
<path d="M44.5 22H38.5C37.948 22 37.5 22.448 37.5 23C37.5 23.552 37.948 24 38.5 24H44.5C45.052 24 45.5 23.552 45.5 23C45.5 22.448 45.052 22 44.5 22Z" fill="#B9C2C9"/>
<path d="M13.5 29H17.5C18.052 29 18.5 28.552 18.5 28C18.5 27.448 18.052 27 17.5 27H13.5C12.948 27 12.5 27.448 12.5 28C12.5 28.552 12.948 29 13.5 29Z" fill="#B9C2C9"/>
<path d="M31.5 27H21.5C20.948 27 20.5 27.448 20.5 28C20.5 28.552 20.948 29 21.5 29H31.5C32.052 29 32.5 28.552 32.5 28C32.5 27.448 32.052 27 31.5 27Z" fill="#B9C2C9"/>
<path d="M44.5 27H35.5C34.948 27 34.5 27.448 34.5 28C34.5 28.552 34.948 29 35.5 29H44.5C45.052 29 45.5 28.552 45.5 28C45.5 27.448 45.052 27 44.5 27Z" fill="#B9C2C9"/>
</svg>
