<svg width="58" height="58" viewBox="0 0 58 58" fill="none" xmlns="http://www.w3.org/2000/svg">
<path d="M50.949 12.187L45.131 6.369L40.084 1.321L39.314 0.551C38.964 0.201 38.48 0 37.985 0H8.963C7.777 0 6.5 0.916 6.5 2.926V39V55.537V56C6.5 56.837 7.342 57.653 8.338 57.91C8.388 57.923 8.436 57.942 8.488 57.952C8.644 57.983 8.803 58 8.963 58H49.037C49.197 58 49.356 57.983 49.512 57.952C49.564 57.942 49.613 57.923 49.664 57.909C50.659 57.652 51.5 56.837 51.5 56V55.537V39V13.978C51.5 13.211 51.407 12.644 50.949 12.187ZM47.935 12H39.5V3.565L43.748 7.814L47.935 12ZM8.963 2H37.558C37.525 2.126 37.5 2.256 37.5 2.391V14H49.108C49.243 14 49.373 13.975 49.499 13.942C49.499 13.957 49.5 13.963 49.5 13.978V26.671L41.189 18.775C40.994 18.59 40.744 18.491 40.464 18.501C40.195 18.511 39.943 18.628 39.761 18.826L29.966 29.553L25.223 24.81C24.854 24.441 24.265 24.418 23.868 24.755L8.5 37.836V2.926C8.5 2.709 8.533 2 8.963 2ZM8.963 56C8.892 56 8.828 55.974 8.765 55.951C8.609 55.877 8.5 55.721 8.5 55.537V41H49.5V55.537C49.5 55.721 49.39 55.877 49.235 55.951C49.172 55.975 49.108 56 49.037 56H8.963ZM10.218 39L24.463 26.876L34.776 37.19C35.167 37.581 35.799 37.581 36.19 37.19C36.581 36.799 36.581 36.167 36.19 35.776L31.383 30.969L40.551 20.928L49.5 29.429V39H10.218Z" fill="#B9C2C9"/>
<path d="M19.3544 51.43C19.3354 51.876 19.1834 52.194 18.8964 52.38C18.6094 52.566 18.2244 52.66 17.7414 52.66C17.5504 52.66 17.3454 52.638 17.1264 52.592C16.9074 52.546 16.6974 52.494 16.4974 52.435C16.2964 52.375 16.1124 52.312 15.9434 52.244C15.7744 52.176 15.6444 52.109 15.5534 52.046L14.8564 53.153C15.0384 53.29 15.2614 53.413 15.5264 53.522C15.7904 53.631 16.0664 53.729 16.3534 53.816C16.6404 53.903 16.9184 53.966 17.1874 54.007C17.4564 54.048 17.6904 54.069 17.8914 54.069C18.2924 54.069 18.6824 54.03 19.0604 53.953C19.4384 53.876 19.7734 53.739 20.0654 53.543C20.3574 53.347 20.5894 53.087 20.7624 52.764C20.9354 52.441 21.0224 52.041 21.0224 51.568V43.72H19.3544V51.43Z" fill="#B9C2C9"/>
<path d="M28.7667 44.744C28.4337 44.471 28.0577 44.265 27.6387 44.129C27.2197 43.992 26.7957 43.924 26.3677 43.924H23.4697V54H25.1107V50.363H26.3277C26.8557 50.363 27.3397 50.286 27.7767 50.131C28.2137 49.976 28.5877 49.757 28.8977 49.475C29.2077 49.193 29.4487 48.844 29.6227 48.429C29.7957 48.014 29.8827 47.552 29.8827 47.041C29.8827 46.558 29.7797 46.123 29.5747 45.735C29.3697 45.347 29.0987 45.018 28.7667 44.744ZM28.1447 48.073C28.0437 48.351 27.9127 48.567 27.7487 48.722C27.5847 48.877 27.4047 48.989 27.2087 49.057C27.0127 49.125 26.8137 49.16 26.6137 49.16H25.1097V45.168H26.3397C26.7587 45.168 27.0957 45.234 27.3517 45.366C27.6067 45.498 27.8047 45.662 27.9467 45.858C28.0877 46.054 28.1807 46.259 28.2267 46.473C28.2717 46.687 28.2947 46.876 28.2947 47.04C28.2947 47.451 28.2447 47.795 28.1447 48.073Z" fill="#B9C2C9"/>
<path d="M35.7601 49.926H37.4692V52.414C37.3962 52.515 37.2821 52.592 37.1271 52.646C36.9721 52.701 36.8101 52.744 36.6421 52.776C36.4731 52.808 36.3052 52.831 36.1362 52.844C35.9672 52.858 35.8332 52.865 35.7332 52.865C35.4052 52.865 35.0922 52.788 34.7962 52.633C34.5002 52.478 34.2351 52.241 34.0031 51.922C33.7711 51.603 33.5882 51.193 33.4562 50.692C33.3242 50.191 33.2531 49.598 33.2441 48.915C33.2531 48.213 33.3262 47.621 33.4632 47.138C33.6002 46.655 33.7891 46.261 34.0301 45.955C34.2711 45.649 34.5451 45.434 34.8501 45.306C35.1551 45.178 35.4761 45.115 35.8141 45.115C36.1151 45.115 36.4061 45.175 36.6891 45.293C36.9711 45.411 37.2222 45.603 37.4412 45.867L38.5761 44.855C38.2021 44.491 37.7781 44.217 37.3051 44.035C36.8311 43.852 36.3211 43.762 35.7741 43.762C35.1811 43.762 34.6301 43.873 34.1201 44.097C33.6091 44.321 33.1651 44.646 32.7871 45.075C32.4091 45.504 32.1121 46.039 31.8981 46.681C31.6841 47.324 31.5771 48.069 31.5771 48.916C31.5771 49.763 31.6841 50.511 31.8981 51.158C32.1121 51.805 32.4081 52.343 32.7871 52.771C33.1651 53.2 33.6071 53.523 34.1131 53.742C34.6191 53.961 35.1731 54.07 35.7741 54.07C36.0751 54.07 36.3781 54.048 36.6831 54.002C36.9881 53.956 37.2851 53.879 37.5721 53.77C37.8591 53.661 38.1331 53.522 38.3921 53.353C38.6511 53.184 38.8861 52.968 39.0961 52.704V48.808H35.7601V49.926Z" fill="#B9C2C9"/>
<path d="M19.069 23.638C22.14 23.638 24.638 21.14 24.638 18.069C24.638 14.998 22.14 12.5 19.069 12.5C15.998 12.5 13.5 14.998 13.5 18.069C13.5 21.14 15.998 23.638 19.069 23.638ZM19.069 14.5C21.037 14.5 22.638 16.101 22.638 18.069C22.638 20.037 21.037 21.638 19.069 21.638C17.101 21.638 15.5 20.037 15.5 18.069C15.5 16.101 17.101 14.5 19.069 14.5Z" fill="#B9C2C9"/>
</svg>
