<svg width="58" height="58" viewBox="0 0 58 58" fill="none" xmlns="http://www.w3.org/2000/svg">
<path d="M50.95 12.187L50.179 11.416L40.084 1.321L39.313 0.55C38.964 0.201 38.48 0 37.985 0H8.963C7.777 0 6.5 0.916 6.5 2.926V39V55.537V56C6.5 56.837 7.342 57.653 8.338 57.91C8.388 57.923 8.436 57.942 8.488 57.952C8.644 57.983 8.803 58 8.963 58H49.037C49.197 58 49.356 57.983 49.512 57.952C49.564 57.942 49.612 57.923 49.662 57.91C50.658 57.653 51.5 56.837 51.5 56V55.537V39V13.978C51.5 13.211 51.408 12.645 50.95 12.187ZM47.935 12H39.5V3.565L47.935 12ZM8.963 56C8.892 56 8.828 55.974 8.765 55.951C8.609 55.877 8.5 55.721 8.5 55.537V41H49.5V55.537C49.5 55.721 49.391 55.876 49.235 55.951C49.172 55.974 49.108 56 49.037 56H8.963ZM8.5 39V2.926C8.5 2.709 8.533 2 8.963 2H37.558C37.525 2.126 37.5 2.256 37.5 2.391V14H49.109C49.244 14 49.373 13.975 49.499 13.942C49.499 13.957 49.5 13.963 49.5 13.978V39H8.5Z" fill="#B9C2C9"/>
<path d="M22.0421 44.744C21.7091 44.471 21.3331 44.265 20.9141 44.129C20.4951 43.992 20.0711 43.924 19.6431 43.924H16.7451V54H18.3861V50.363H19.6031C20.1311 50.363 20.6151 50.286 21.0521 50.131C21.4891 49.976 21.8631 49.757 22.1731 49.475C22.4831 49.193 22.7241 48.844 22.8981 48.429C23.0711 48.014 23.1581 47.552 23.1581 47.041C23.1581 46.558 23.0551 46.123 22.8501 45.735C22.6451 45.347 22.3751 45.018 22.0421 44.744ZM21.4201 48.073C21.3191 48.351 21.1881 48.567 21.0241 48.722C20.8601 48.877 20.6801 48.989 20.4841 49.057C20.2881 49.125 20.0891 49.16 19.8891 49.16H18.3851V45.168H19.6151C20.0341 45.168 20.3711 45.234 20.6271 45.366C20.8821 45.498 21.0801 45.662 21.2221 45.858C21.3631 46.054 21.4561 46.259 21.5021 46.473C21.5471 46.687 21.5701 46.876 21.5701 47.04C21.5701 47.451 21.5201 47.795 21.4201 48.073Z" fill="#B9C2C9"/>
<path d="M31.954 45.4C31.53 44.954 30.997 44.595 30.354 44.327C29.711 44.059 28.966 43.924 28.119 43.924H25.084V54H28.898C29.025 54 29.221 53.984 29.486 53.952C29.75 53.92 30.042 53.848 30.361 53.733C30.68 53.619 31.01 53.448 31.352 53.22C31.694 52.992 32.001 52.68 32.275 52.283C32.549 51.886 32.774 51.394 32.952 50.806C33.13 50.218 33.219 49.509 33.219 48.68C33.219 48.078 33.114 47.492 32.905 46.923C32.694 46.355 32.378 45.847 31.954 45.4ZM30.758 51.73C30.266 52.441 29.464 52.796 28.352 52.796H26.725V45.167H27.682C28.466 45.167 29.104 45.27 29.596 45.475C30.088 45.68 30.478 45.949 30.765 46.282C31.052 46.615 31.245 46.986 31.346 47.396C31.446 47.806 31.496 48.221 31.496 48.64C31.496 49.989 31.25 51.02 30.758 51.73Z" fill="#B9C2C9"/>
<path d="M35.5977 54H37.2657V49.461H41.4767V48.34H37.2657V45.168H41.8997V43.924H35.5977V54Z" fill="#B9C2C9"/>
<path d="M38.4277 22.961C37.5087 22.961 36.3807 23.081 35.0697 23.319C33.2397 21.377 31.3297 18.541 29.9817 15.757C31.3187 10.128 30.6497 9.33101 30.3547 8.95501C30.0407 8.55501 29.5977 7.90601 29.0937 7.90601C28.8827 7.90601 28.3067 8.00201 28.0777 8.07801C27.5017 8.27001 27.1917 8.71401 26.9437 9.29301C26.2367 10.946 27.2067 13.764 28.2047 15.936C27.3517 19.329 25.9207 23.39 24.4167 26.686C20.6267 28.422 18.6137 30.127 18.4317 31.754C18.3657 32.346 18.5057 33.215 19.5467 33.996C19.8317 34.209 20.1657 34.322 20.5137 34.322C21.3887 34.322 22.2727 33.652 23.2957 32.215C24.0417 31.167 24.8427 29.738 25.6787 27.964C28.3567 26.793 31.6697 25.735 34.5067 25.142C36.0867 26.659 37.5017 27.427 38.7177 27.427C39.6137 27.427 40.3817 27.015 40.9377 26.236C41.5167 25.425 41.6487 24.699 41.3277 24.076C40.9427 23.327 39.9937 22.961 38.4277 22.961ZM20.5357 32.634C20.0677 32.275 20.0947 32.033 20.1047 31.942C20.1667 31.386 21.0377 30.399 23.1747 29.198C21.5547 32.19 20.6847 32.587 20.5357 32.634ZM28.7357 9.71201C28.7787 9.69801 29.7807 10.813 28.8317 12.928C27.4057 11.469 28.6377 9.74501 28.7357 9.71201ZM26.6687 25.738C27.6837 23.319 28.6277 20.648 29.3427 18.174C30.4657 20.192 31.8147 22.15 33.1647 23.718C31.0307 24.219 28.7587 24.926 26.6687 25.738ZM39.5697 25.259C39.2617 25.69 38.5937 25.7 38.3597 25.7C37.8267 25.7 37.6277 25.383 36.8127 24.756C37.4847 24.67 38.1187 24.648 38.6237 24.648C39.5127 24.648 39.6757 24.779 39.7987 24.845C39.7767 24.916 39.7187 25.05 39.5697 25.259Z" fill="#B9C2C9"/>
</svg>
