<svg width="58" height="58" viewBox="0 0 58 58" fill="none" xmlns="http://www.w3.org/2000/svg">
<path d="M50.95 12.187L50.179 11.416L40.084 1.321L39.313 0.55C38.964 0.201 38.48 0 37.985 0H8.963C7.777 0 6.5 0.916 6.5 2.926V39V55.537V56C6.5 56.837 7.342 57.653 8.338 57.91C8.388 57.923 8.436 57.942 8.488 57.952C8.644 57.983 8.803 58 8.963 58H49.037C49.197 58 49.356 57.983 49.512 57.952C49.564 57.942 49.612 57.923 49.662 57.91C50.658 57.653 51.5 56.837 51.5 56V55.537V39V13.978C51.5 13.211 51.408 12.645 50.95 12.187ZM47.935 12H39.5V3.565L47.935 12ZM8.963 56C8.892 56 8.828 55.974 8.765 55.951C8.609 55.877 8.5 55.721 8.5 55.537V41H49.5V55.537C49.5 55.721 49.391 55.876 49.235 55.951C49.172 55.974 49.108 56 49.037 56H8.963ZM8.5 39V2.926C8.5 2.709 8.533 2 8.963 2H37.558C37.525 2.126 37.5 2.256 37.5 2.391V14H49.109C49.244 14 49.373 13.975 49.499 13.942C49.499 13.957 49.5 13.963 49.5 13.978V39H8.5Z" fill="#B9C2C9"/>
<path d="M22.2267 43.924L20.2987 48.025H20.1617L18.3847 43.924H16.5117L19.2317 49.105L16.6757 54H18.5757L20.2987 50.199H20.4357L22.0347 54H23.9357L21.3787 49.105L24.0997 43.924H22.2267Z" fill="#B9C2C9"/>
<path d="M28.0371 43.924H26.3691V54H32.6721V52.756H28.0371V43.924Z" fill="#B9C2C9"/>
<path d="M38.9404 49.064C38.6264 48.836 38.2864 48.642 37.9214 48.483C37.5564 48.324 37.2194 48.16 36.9094 47.991C36.5994 47.822 36.3394 47.627 36.1304 47.403C35.9204 47.179 35.8164 46.885 35.8164 46.521C35.8164 46.375 35.8524 46.222 35.9254 46.063C35.9984 45.904 36.0984 45.76 36.2264 45.632C36.3534 45.504 36.4994 45.398 36.6644 45.311C36.8294 45.224 37.0014 45.172 37.1844 45.154C37.5124 45.127 37.7814 45.122 37.9914 45.14C38.2004 45.159 38.3694 45.19 38.4974 45.236C38.6244 45.282 38.7234 45.327 38.7914 45.373C38.8594 45.419 38.9214 45.455 38.9764 45.482C38.9854 45.473 39.0124 45.427 39.0584 45.345C39.1034 45.263 39.1584 45.16 39.2224 45.037C39.2854 44.914 39.3544 44.782 39.4274 44.641C39.5004 44.499 39.5644 44.37 39.6184 44.251C39.3534 44.078 39.0074 43.952 38.5794 43.875C38.1504 43.798 37.7264 43.759 37.3084 43.759C36.8984 43.759 36.5084 43.822 36.1394 43.95C35.7704 44.078 35.4464 44.263 35.1684 44.504C34.8904 44.745 34.6694 45.039 34.5054 45.386C34.3414 45.733 34.2594 46.129 34.2594 46.575C34.2594 47.067 34.3634 47.477 34.5734 47.805C34.7824 48.133 35.0474 48.418 35.3664 48.659C35.6854 48.9 36.0274 49.11 36.3914 49.288C36.7554 49.466 37.0954 49.643 37.4104 49.821C37.7254 49.999 37.9864 50.197 38.1964 50.416C38.4054 50.635 38.5104 50.899 38.5104 51.209C38.5104 51.72 38.3624 52.105 38.0664 52.364C37.7704 52.624 37.3434 52.754 36.7884 52.754C36.6054 52.754 36.4104 52.735 36.2004 52.699C35.9904 52.663 35.7814 52.615 35.5714 52.555C35.3614 52.495 35.1584 52.432 34.9634 52.364C34.7674 52.296 34.6054 52.225 34.4784 52.152L34.1914 53.328C34.3464 53.465 34.5304 53.581 34.7454 53.677C34.9594 53.773 35.1844 53.848 35.4224 53.903C35.6594 53.958 35.8944 53.997 36.1264 54.019C36.3584 54.041 36.5844 54.053 36.8034 54.053C37.3134 54.053 37.7694 53.976 38.1704 53.821C38.5714 53.666 38.9084 53.459 39.1824 53.199C39.4564 52.939 39.6674 52.638 39.8184 52.297C39.9694 51.956 40.0444 51.602 40.0444 51.237C40.0444 50.699 39.9394 50.259 39.7304 49.918C39.5174 49.577 39.2554 49.292 38.9404 49.064Z" fill="#B9C2C9"/>
<path d="M24.5 13H12.5V17V19V21V23V25V27V29V31V35H22.5H24.5H45.5V31V29V27V25V23V21V17H24.5V13ZM14.5 19H22.5V21H14.5V19ZM14.5 23H22.5V25H14.5V23ZM14.5 27H22.5V29H14.5V27ZM22.5 33H14.5V31H22.5V33ZM43.5 33H24.5V31H43.5V33ZM43.5 29H24.5V27H43.5V29ZM43.5 25H24.5V23H43.5V25ZM43.5 19V21H24.5V19H43.5ZM14.5 17V15H22.5V17H14.5Z" fill="#B9C2C9"/>
</svg>
